<?xml version="1.0" encoding="utf-8"?>
<!-- Generator: Adobe Illustrator 22.1.0, SVG Export Plug-In . SVG Version: 6.00 Build 0)  -->
<svg version="1.1" id="Layer_1" xmlns="http://www.w3.org/2000/svg" xmlns:xlink="http://www.w3.org/1999/xlink" x="0px" y="0px"
	 viewBox="0 0 350 89" style="enable-background:new 0 0 350 89;" xml:space="preserve">
<style type="text/css">
	.st0{fill:#FFFFFF;}
</style>
<g>
	<path class="st0" d="M53.3,22.4v44.3H41.8V44.4c0-1.7-0.3-3.3-1-4.8c-0.6-1.5-1.5-2.8-2.7-3.9c-1.1-1.1-2.5-2-4-2.6
		c-1.5-0.6-3.1-0.9-4.7-0.9c-1.7,0-3.3,0.3-4.8,1c-1.5,0.7-2.8,1.5-3.9,2.6c-1.1,1.1-2.1,2.4-2.7,3.9c-0.6,1.5-1,3.1-1,4.8
		c0,1.7,0.3,3.2,1,4.7c0.6,1.5,1.5,2.8,2.7,3.9c1.2,1.1,2.5,2,3.9,2.7c1.5,0.7,3.1,1,4.8,1c1.8,0,3.4-0.3,4.7-1h0.1V56l4.4,7.9
		L38.5,64c-2.9,2.2-6.5,3.4-10.7,3.4c-3.1,0-6.1-0.6-8.9-1.8c-2.8-1.2-5.2-2.8-7.3-4.9c-2.1-2.1-3.7-4.5-4.9-7.3
		c-1.2-2.8-1.8-5.7-1.8-8.9c0-3.2,0.6-6.2,1.8-8.9c1.2-2.8,2.8-5.2,4.9-7.3c2.1-2.1,4.5-3.7,7.3-4.9c2.8-1.2,5.7-1.8,8.9-1.8
		c3.1,0,5.8,0.6,8.1,1.7s4.3,2.8,5.9,5v-6H53.3z"/>
	<path class="st0" d="M71.7,60.6L56.2,22.4h12.7v0.1l11.4,32.1L71.7,60.6z M105.6,22.4l-0.1,0.2c-1,2.7-2,5.4-2.9,7.9
		c-0.9,2.6-1.8,5-2.7,7.2C97,45.9,94.3,53,92,59c-2.3,5.9-4.8,10.8-7.5,14.5c-2.7,3.8-5.7,6.6-9,8.3c-3.3,1.7-7.5,2.6-12.5,2.6h-0.2
		v-12H63c1.5,0,2.9-0.1,4.1-0.2c1.2-0.1,2.3-0.4,3.3-0.8c1-0.4,1.9-0.9,2.8-1.6c0.9-0.7,1.7-1.6,2.4-2.7c0.8-1.1,1.5-2.4,2.3-3.9
		c0.8-1.5,1.6-3.4,2.4-5.5c0.8-2.1,1.7-4.6,2.7-7.4c1-2.8,2.1-6,3.4-9.5c0.9-2.7,1.9-5.5,3-8.5c1.1-3,2.2-6.3,3.5-9.8v-0.1H105.6z"
		/>
	<path class="st0" d="M204.2,4.7h11.8l-0.1,62h-11.8L204.2,4.7z M244.7,27.7c2.6,3.5,4,9.1,4,16.8v22.1h-11.8V44.6
		c0-1.6,0-3.1-0.1-4.6c-0.1-1.5-0.4-2.8-0.9-3.9c-0.5-1.1-1.4-2-2.6-2.6s-2.9-1-5-1c-1.7,0-3.6,0.5-5.6,1.4l-0.1,0.1l-0.1-0.2
		l-4.2-7.7l0.1-0.1c1.5-1.4,3.2-2.4,5.1-3.1c1.9-0.7,4-1,6.2-1C236.8,21.9,241.8,23.8,244.7,27.7z"/>
	<path class="st0" d="M290.2,24.1l-1.1,1.8l-4.5,8.1l-0.1-0.1c-1.9-1.1-4-1.7-6.3-1.7c-1.5,0-3,0.3-4.3,0.8
		c-1.4,0.5-2.6,1.2-3.6,2.1c-1.1,0.9-2,2-2.7,3.2c-0.7,1.2-1.2,2.6-1.5,4v24.3h-12V22.4h12v5.8c3.1-4.3,7.7-6.5,13.7-6.5
		C283.4,21.7,286.8,22.5,290.2,24.1L290.2,24.1z"/>
	<path class="st0" d="M292.8,4.7h11.8V15h-11.8V4.7z M292.8,66.6V22.4h11.8v44.3H292.8z"/>
	<path class="st0" d="M331.6,40.3c1.9,0.6,3.7,1.3,5.4,2c1.6,0.7,3,1.5,4.2,2.4c1.2,0.9,2.2,2.1,2.8,3.4c0.7,1.3,1,2.9,1,4.7V53
		c0,4.5-1.5,8-4.5,10.5c-3,2.5-7.2,3.8-12.5,3.8c-3.4,0-6.7-0.6-9.9-1.7c-3.2-1.2-6.3-2.8-9.1-5l-0.1-0.1l0.1-0.1l6-9.5l0.1,0.1
		c1.8,1.9,3.8,3.3,6,4.3c2.2,1,4.6,1.5,7.2,1.5c3.5,0,5.2-1.1,5.2-3.4c0-1.1-0.6-1.9-1.7-2.4c-1.1-0.5-2.4-1-4-1.5
		c-0.3-0.1-0.6-0.2-0.8-0.2c-0.3,0-0.5-0.1-0.8-0.2c-1.8-0.5-3.5-1-5.3-1.5c-1.8-0.6-3.4-1.3-4.8-2.3c-1.4-1-2.6-2.2-3.5-3.7
		c-0.9-1.5-1.4-3.4-1.4-5.8v-0.2c0-2.1,0.4-3.9,1.1-5.7c0.8-1.7,1.9-3.2,3.3-4.4c1.4-1.2,3.1-2.2,5.1-2.9c2-0.7,4.2-1,6.6-1
		c2.8,0,5.7,0.4,8.6,1.3c2.9,0.9,5.6,2.1,8.1,3.8v0.2l-5.4,9.8l-0.1-0.1c-1.4-1.4-3-2.4-5-3.2c-2-0.8-4.1-1.2-6.4-1.2
		c-0.4,0-0.9,0-1.4,0.1c-0.5,0.1-1,0.2-1.5,0.4c-0.4,0.2-0.8,0.5-1.1,0.9c-0.3,0.4-0.4,0.9-0.4,1.6c0,0.5,0.2,1,0.7,1.5
		s1.1,0.9,1.8,1.2c0.7,0.4,1.6,0.8,2.5,1.1c0.9,0.4,1.8,0.7,2.7,1c0.2,0,0.4,0,0.6,0.1C331.2,40.2,331.4,40.3,331.6,40.3z"/>
	<path class="st0" d="M132.5,34.2c0.5,0.4,1,0.9,1.5,1.4c1,1.1,1.7,2.4,2.3,3.9c0.6,1.5,0.8,3.1,0.8,4.7c0,1.8-0.3,3.4-0.8,4.9
		c-0.6,1.5-1.3,2.8-2.3,4c-1,1.1-2.1,2-3.4,2.7c-1.3,0.7-2.6,1-4.1,1c-1.5,0-2.9-0.3-4.2-1c-1.3-0.6-2.4-1.5-3.4-2.7
		c-1-1.2-1.7-2.5-2.3-4c-0.6-1.5-0.8-3.1-0.8-4.9c0-1.7,0.3-3.2,0.8-4.7c0.6-1.5,1.3-2.8,2.3-3.9c1-1.1,2.1-2,3.4-2.6
		c1.3-0.6,2.7-1,4.2-1c0,0,0,0,0.1,0h19.1c-0.9-1.3-1.8-2.5-2.9-3.6c-2.1-2.1-4.5-3.7-7.3-4.9c-2.8-1.2-5.8-1.8-8.9-1.8
		c-3.2,0-6.2,0.6-8.9,1.8c-2.8,1.2-5.2,2.8-7.3,4.9c-2.1,2.1-3.7,4.5-4.9,7.3c-1.2,2.8-1.8,5.7-1.8,8.9s0.6,6.1,1.8,8.9
		c1.2,2.8,2.8,5.2,4.9,7.3c2.1,2.1,4.5,3.7,7.3,4.9s5.8,1.8,8.9,1.8c3.2,0,6.2-0.6,8.9-1.8c2.8-1.2,5.2-2.8,7.3-4.9
		c2.1-2.1,3.7-4.5,4.9-7.3c1.2-2.8,1.8-5.7,1.8-8.9c0-1.4-0.1-2.8-0.4-4.1L132.5,34.2z"/>
	<path class="st0" d="M181.9,34.2c0.5,0.4,1,0.9,1.5,1.4c1,1.1,1.7,2.4,2.3,3.9c0.6,1.5,0.8,3.1,0.8,4.7c0,1.8-0.3,3.4-0.8,4.9
		c-0.6,1.5-1.3,2.8-2.3,4c-1,1.1-2.1,2-3.4,2.7c-1.3,0.7-2.6,1-4.1,1c-1.5,0-2.9-0.3-4.2-1c-1.3-0.6-2.4-1.5-3.4-2.7
		c-1-1.2-1.7-2.5-2.3-4c-0.6-1.5-0.8-3.1-0.8-4.9c0-1.7,0.3-3.2,0.8-4.7c0.6-1.5,1.3-2.8,2.3-3.9c1-1.1,2.1-2,3.4-2.6
		c1.3-0.6,2.7-1,4.2-1c0,0,0,0,0.1,0H195c-0.9-1.3-1.8-2.5-2.9-3.6c-2.1-2.1-4.5-3.7-7.3-4.9c-2.8-1.2-5.8-1.8-8.9-1.8
		s-6.2,0.6-8.9,1.8c-2.8,1.2-5.2,2.8-7.3,4.9c-2.1,2.1-3.7,4.5-4.9,7.3c-1.2,2.8-1.8,5.7-1.8,8.9s0.6,6.1,1.8,8.9
		c1.2,2.8,2.8,5.2,4.9,7.3c2.1,2.1,4.5,3.7,7.3,4.9c2.8,1.2,5.8,1.8,8.9,1.8s6.2-0.6,8.9-1.8c2.8-1.2,5.2-2.8,7.3-4.9
		c2.1-2.1,3.7-4.5,4.9-7.3c1.2-2.8,1.8-5.7,1.8-8.9c0-1.4-0.1-2.8-0.4-4.1L181.9,34.2z"/>
</g>
</svg>
